<svg xmlns="http://www.w3.org/2000/svg" width="239.639" height="97.137" viewBox="0 0 239.639 97.137" fill="none">
  <path d="M 231.609 86.638 C 213.184 88.451 193.319 90.562 174.822 89.772 C 164.993 89.353 154.929 87.053 145.427 86.693 C 144.111 86.643 142.885 86.03 141.553 86.125 C 127.271 80.868 114.321 79.006 102.819 68.299 C 101.82 67.369 98.183 63.681 98.265 62.554 C 98.296 62.135 99.3 61.686 99.739 61.521 C 104.305 59.804 110.219 59.037 114.814 57.488 C 132.8 51.425 143.171 43.135 149.645 25.119 C 150.644 22.34 152.861 19.224 152.28 16.093 C 150.38 5.873 140.419 0.913 130.918 0.216 C 114.86 -0.962 95.581 2.384 86.939 17.61 C 80.029 29.783 79.115 40.249 82.868 53.608 C 83.496 55.841 85.008 57.146 85.292 59.19 C 76.642 61.562 67.871 63.958 59.082 65.781 C 50.149 67.636 38.905 69.811 30.34 70.091 C 21.44 70.381 13.689 68.827 5.06 68.501 C -0.795 68.278 -1.961 70.267 3.642 72.507 C 6.686 73.725 15.147 77.094 17.943 77.33 C 29.135 78.278 42.366 76.136 53.161 73.308 C 61.253 71.186 69.467 69.275 77.677 67.353 C 80.331 66.732 85.197 64.455 87.592 64.895 C 89.776 65.297 90.116 67.791 91.198 69.065 C 99.703 79.076 117.55 89.081 130.038 92.145 C 131.829 92.585 134.503 92.909 136.385 93.375 C 137.193 93.875 138.009 94.286 138.824 94.613 C 140.197 95.297 141.677 95.975 142.317 96.011 C 143.61 96.081 144.919 95.338 146.431 95.421 C 147.776 95.493 148.901 96.34 150.104 96.441 C 165.617 97.741 189.396 97.327 204.641 94.279 C 207.09 93.789 208.874 92.455 211.088 91.945 C 219.144 90.091 228.535 89.808 236.625 88.05 C 237.322 87.9 239.441 87.61 239.609 86.895 C 240.176 84.491 232.662 86.532 231.604 86.638 L 231.609 86.638 Z M 94.066 56.361 C 92.664 55.636 90.194 44.924 90.005 42.826 C 89.159 33.471 90.245 26.113 95.194 18.126 C 101.709 7.608 115.041 5.717 126.483 4.984 C 136.989 4.311 151.039 8.525 146.56 22.021 C 139.908 42.067 119.723 49.33 101.407 54.911 C 99.76 55.414 95.302 57.004 94.066 56.364 L 94.066 56.361 Z M 219.702 90.311 L 220.533 90.192 C 220.525 90.218 220.525 90.238 220.515 90.264 C 220.249 90.28 219.978 90.295 219.702 90.311 Z" fill="currentColor" fill-rule="nonzero"/>
</svg>
