<svg xmlns="http://www.w3.org/2000/svg" width="80.440" height="53.423" viewBox="0 0 80.440 53.423" fill="none">
  <path d="M 79.994 20.645 C 78.606 17.482 76.35 17.361 73.175 17.128 C 63.366 16.41 48.395 18.306 39.193 15.491 C 36.193 14.574 33.442 13.825 30.195 13.126 C 23.943 11.782 10.606 7.249 6.499 2.466 C 5.51 1.313 6.491 -0.01 3.474 0 C -1.642 0.018 0.012 6.775 1.434 9.873 C 4.919 12.134 7.82 15.123 11.475 17.146 C 12.167 17.529 17.195 20.088 17.531 20.153 C 18.432 20.331 19.413 19.635 20.466 19.728 C 21.658 19.837 22.288 20.865 23.235 21.137 C 30.558 23.232 43.266 24.354 50.935 24.413 C 55.01 24.444 58.998 23.551 63.085 23.88 C 63.252 24.874 62.419 25.371 61.784 25.936 C 53.921 32.957 36.906 39.663 27.296 45.705 C 25.097 47.088 20.329 50.305 18.69 52.09 C 17.528 53.351 19.844 53.628 20.918 53.291 C 21.537 53.097 22.012 52.268 22.701 51.968 C 31.077 48.329 40.205 45.529 48.635 42.517 C 55.003 40.24 60.478 38.531 66.649 35.477 C 69.628 34.004 75.614 31.165 78.027 29.287 C 80.167 27.622 81.053 23.061 79.992 20.64 L 79.994 20.645 Z" fill="currentColor" fill-rule="nonzero"/>
</svg>
