<svg xmlns="http://www.w3.org/2000/svg" width="60.656" height="60.524" viewBox="0 0 60.656 60.524" fill="none">
  <path d="M 1.088 60.25 C -0.271 59.769 0.193 54.521 0.232 53.458 C 0.396 49.029 1.194 30.697 1.199 30.659 C 1.963 18.415 -0.977 14.718 0.348 2.838 C 0.377 2.595 1.354 0.446 2.021 0.437 L 23.521 0 C 24.372 -0.019 24.618 2.576 24.019 2.76 C 20.064 3.988 12.314 7.097 10.999 9.799 C 7.929 16.105 6.295 28.446 6.304 31.386 C 6.304 32.483 8.233 39.924 8.92 40.569 C 9.761 41.36 17.115 48.02 18.604 48.607 C 20.243 49.248 40.64 47.967 43.261 45.697 C 45.727 43.562 49.918 30.79 49.855 29.426 C 49.768 27.559 48.144 19.593 47.467 17.847 C 46.834 16.212 32.33 11.914 31.174 12.225 C 30.434 12.424 25.996 17.493 24.826 18.531 C 24.304 18.992 21.592 24.391 21.021 26.293 C 20.934 26.584 20.755 32.027 25.372 34.054 C 25.682 34.19 35.018 34.539 35.525 33.084 C 36.391 30.595 32.571 25.23 32.141 25.322 C 29.699 25.851 27.306 26.293 26.16 25.754 C 25.015 25.216 34.723 17.469 36.173 17.333 C 36.942 17.26 43.991 21.126 44.503 21.674 C 45.886 23.139 44.943 30.862 44.407 34.273 C 44.344 34.67 44.112 35.034 43.744 35.243 C 41.844 36.349 34.529 42.611 33.108 42.781 C 29.129 43.266 25.372 40.356 22.955 39.871 C 21.195 39.516 15.176 37.547 14.731 36.446 C 11.874 29.383 12.386 18.546 13.184 15.897 C 14.731 10.765 33.669 3.381 38.315 2.542 C 43.599 1.586 51.988 8.038 58.244 9.464 C 58.882 9.61 59.351 10.114 59.385 10.735 L 60.656 32.977 C 60.656 33.04 60.656 33.103 60.656 33.166 C 60.492 35.233 59.636 39.381 59.128 47.627 C 58.906 51.183 60.052 56.243 58.244 59.44 C 57.968 59.925 45.775 59.837 38.136 60.24 C 31.3 60.599 21.461 59.182 17.656 59.27 C 12.324 59.391 3.829 61.21 1.088 60.24 L 1.088 60.25 Z" fill="currentColor" fill-rule="nonzero"/>
</svg>
