<svg xmlns="http://www.w3.org/2000/svg" width="57" height="57" viewBox="0 0 57 57" fill="none">
  <path d="M 1.022 56.742 C -0.255 56.29 0.182 51.346 0.218 50.346 C 0.372 46.175 1.122 28.91 1.127 28.874 C 1.844 17.342 -0.918 13.861 0.327 2.673 C 0.354 2.444 1.272 0.42 1.899 0.411 L 22.103 0 C 22.903 -0.018 23.134 2.426 22.571 2.6 C 18.855 3.755 11.572 6.684 10.336 9.229 C 7.451 15.168 5.915 26.79 5.924 29.559 C 5.924 30.591 7.737 37.6 8.382 38.207 C 9.173 38.952 16.083 45.224 17.482 45.777 C 19.023 46.38 38.191 45.174 40.653 43.036 C 42.97 41.026 46.909 28.997 46.85 27.713 C 46.769 25.954 45.242 18.453 44.606 16.808 C 44.011 15.268 30.381 11.221 29.295 11.513 C 28.6 11.7 24.429 16.474 23.33 17.452 C 22.839 17.886 20.29 22.971 19.754 24.762 C 19.672 25.036 19.504 30.162 23.843 32.072 C 24.134 32.199 32.907 32.528 33.384 31.158 C 34.197 28.814 30.608 23.761 30.204 23.848 C 27.909 24.346 25.66 24.762 24.584 24.255 C 23.507 23.748 32.63 16.452 33.993 16.324 C 34.715 16.255 41.339 19.896 41.821 20.413 C 43.12 21.792 42.234 29.065 41.73 32.277 C 41.671 32.652 41.453 32.994 41.108 33.191 C 39.322 34.232 32.448 40.131 31.112 40.29 C 27.373 40.747 23.843 38.006 21.571 37.549 C 19.918 37.216 14.261 35.361 13.843 34.324 C 11.158 27.672 11.64 17.466 12.389 14.971 C 13.843 10.138 31.639 3.184 36.005 2.394 C 40.971 1.494 48.854 7.57 54.733 8.913 C 55.333 9.05 55.773 9.526 55.805 10.11 L 57 31.057 C 57 31.117 57 31.176 57 31.236 C 56.846 33.182 56.041 37.088 55.564 44.854 C 55.355 48.203 56.432 52.968 54.733 55.979 C 54.474 56.436 43.016 56.354 35.837 56.733 C 29.413 57.071 20.168 55.737 16.592 55.819 C 11.581 55.933 3.598 57.646 1.022 56.733 L 1.022 56.742 Z" fill="currentColor" fill-rule="nonzero"/>
</svg>
